# Blender v2.91.0 OBJ File: 'Conveyor Belt.blend'
# www.blender.org
mtllib conveyor_belt_moving.mtl
o belt_front_outer_Cylinder.005
v -0.437500 0.437500 -0.375000
v 0.437500 0.437500 -0.375000
v -0.437500 0.427985 -0.422835
v 0.437500 0.427985 -0.422835
v -0.437500 0.400888 -0.463388
v 0.437500 0.400888 -0.463388
v -0.437500 0.360335 -0.490485
v 0.437500 0.360335 -0.490485
v -0.437500 0.312500 -0.500000
v 0.437500 0.312500 -0.500000
v -0.437500 0.264665 -0.490485
v 0.437500 0.264665 -0.490485
v -0.437500 0.224112 -0.463388
v 0.437500 0.224112 -0.463388
v -0.437500 0.197015 -0.422835
v 0.437500 0.197015 -0.422835
v -0.437500 0.187500 -0.375000
v 0.437500 0.187500 -0.375000
v 0.437500 0.437500 0.000000
v -0.437500 0.437500 0.000000
v -0.437500 0.187500 -0.000000
v 0.437500 0.187500 -0.000000
vt 0.062500 0.875000
vt 0.937500 0.875000
vt 0.937500 0.937500
vt 0.062500 0.937500
vt 0.937500 1.000000
vt 0.062500 1.000000
vt 0.937500 1.062500
vt 0.062500 1.062500
vt 0.937500 1.125000
vt 0.062500 1.125000
vt 0.937500 1.187500
vt 0.062500 1.187500
vt 0.937500 1.250000
vt 0.062500 1.250000
vt 0.937500 1.312500
vt 0.062500 1.312500
vt 0.937500 1.375000
vt 0.062500 1.375000
vt 0.937500 0.500000
vt 0.062500 0.500000
vt 0.937500 1.750000
vt 0.937500 1.375000
vt 0.062500 1.375000
vt 0.062500 1.750000
vn 0.0000 0.9808 -0.1951
vn 0.0000 0.8315 -0.5556
vn 0.0000 0.5556 -0.8315
vn 0.0000 0.1951 -0.9808
vn -0.0000 -0.1951 -0.9808
vn -0.0000 -0.5556 -0.8315
vn -0.0000 -0.8315 -0.5556
vn -0.0000 -0.9808 -0.1951
vn 0.0000 1.0000 -0.0000
vn -0.0000 -1.0000 0.0000
usemtl conveyor
s off
f 1/1/1 2/2/1 4/3/1 3/4/1
f 3/4/2 4/3/2 6/5/2 5/6/2
f 5/6/3 6/5/3 8/7/3 7/8/3
f 7/8/4 8/7/4 10/9/4 9/10/4
f 9/10/5 10/9/5 12/11/5 11/12/5
f 11/12/6 12/11/6 14/13/6 13/14/6
f 13/14/7 14/13/7 16/15/7 15/16/7
f 15/16/8 16/15/8 18/17/8 17/18/8
f 19/19/9 2/2/9 1/1/9 20/20/9
f 21/21/10 17/22/10 18/23/10 22/24/10
o belt_front_inner_Cylinder.016
v -0.437500 0.437500 -0.375000
v 0.437500 0.437500 -0.375000
v -0.437500 0.427985 -0.422835
v 0.437500 0.427985 -0.422835
v -0.437500 0.400888 -0.463388
v 0.437500 0.400888 -0.463388
v -0.437500 0.360335 -0.490485
v 0.437500 0.360335 -0.490485
v -0.437500 0.312500 -0.500000
v 0.437500 0.312500 -0.500000
v -0.437500 0.264665 -0.490485
v 0.437500 0.264665 -0.490485
v -0.437500 0.224112 -0.463388
v 0.437500 0.224112 -0.463388
v -0.437500 0.197015 -0.422835
v 0.437500 0.197015 -0.422835
v -0.437500 0.187500 -0.375000
v 0.437500 0.187500 -0.375000
v 0.437500 0.437500 0.000000
v -0.437500 0.437500 0.000000
v -0.437500 0.187500 -0.000000
v 0.437500 0.187500 -0.000000
vt 0.062500 0.875000
vt 0.062500 0.937500
vt 0.937500 0.937500
vt 0.937500 0.875000
vt 0.062500 1.000000
vt 0.937500 1.000000
vt 0.062500 1.062500
vt 0.937500 1.062500
vt 0.062500 1.125000
vt 0.937500 1.125000
vt 0.062500 1.187500
vt 0.937500 1.187500
vt 0.062500 1.250000
vt 0.937500 1.250000
vt 0.062500 1.312500
vt 0.937500 1.312500
vt 0.062500 1.375000
vt 0.937500 1.375000
vt 0.937500 0.500000
vt 0.062500 0.500000
vt 0.937500 1.750000
vt 0.062500 1.750000
vt 0.062500 1.375000
vt 0.937500 1.375000
vn -0.0000 -0.9808 0.1951
vn -0.0000 -0.8315 0.5556
vn -0.0000 -0.5556 0.8315
vn 0.0000 -0.1951 0.9808
vn 0.0000 0.1951 0.9808
vn 0.0000 0.5556 0.8315
vn 0.0000 0.8315 0.5556
vn 0.0000 0.9808 0.1951
vn -0.0000 -1.0000 0.0000
vn 0.0000 1.0000 -0.0000
usemtl conveyor_inner
s off
f 23/25/11 25/26/11 26/27/11 24/28/11
f 25/26/12 27/29/12 28/30/12 26/27/12
f 27/29/13 29/31/13 30/32/13 28/30/13
f 29/31/14 31/33/14 32/34/14 30/32/14
f 31/33/15 33/35/15 34/36/15 32/34/15
f 33/35/16 35/37/16 36/38/16 34/36/16
f 35/37/17 37/39/17 38/40/17 36/38/17
f 37/39/18 39/41/18 40/42/18 38/40/18
f 41/43/19 42/44/19 23/25/19 24/28/19
f 43/45/20 44/46/20 40/47/20 39/48/20
