# Blender v2.91.0 OBJ File: 'Conveyor Belt.blend'
# www.blender.org
mtllib conveyor_belt_moving.mtl
o belt_middle_front_outer_Cube.003
v -0.437500 0.187500 -0.500000
v -0.437500 0.437500 -0.500000
v 0.437500 0.187500 -0.500000
v 0.437500 0.437500 -0.500000
v -0.437500 0.187500 0.000000
v -0.437500 0.437500 0.000000
v 0.437500 0.187500 0.000000
v 0.437500 0.437500 0.000000
vt 0.937500 1.000000
vt 0.062500 1.000000
vt 0.062500 0.500000
vt 0.937500 0.500000
vt 0.937500 0.000000
vt 0.062500 -0.000000
vt 0.062500 0.500000
vt 0.937500 0.500000
vn 0.0000 1.0000 0.0000
vn 0.0000 -1.0000 0.0000
usemtl conveyor
s off
f 4/1/1 2/2/1 6/3/1 8/4/1
f 1/5/2 3/6/2 7/7/2 5/8/2
o belt_middle_front_inner_Cube.007
v -0.437500 0.187500 -0.500000
v -0.437500 0.437500 -0.500000
v 0.437500 0.187500 -0.500000
v 0.437500 0.437500 -0.500000
v -0.437500 0.187500 0.000000
v -0.437500 0.437500 0.000000
v 0.437500 0.187500 0.000000
v 0.437500 0.437500 0.000000
vt 0.937500 1.000000
vt 0.937500 0.500000
vt 0.062500 0.500000
vt 0.062500 1.000000
vt 0.937500 0.000000
vt 0.937500 0.500000
vt 0.062500 0.500000
vt 0.062500 -0.000000
vn 0.0000 -1.0000 0.0000
vn 0.0000 1.0000 0.0000
usemtl conveyor_inner
s off
f 12/9/3 16/10/3 14/11/3 10/12/3
f 9/13/4 13/14/4 15/15/4 11/16/4
