# Blender v2.91.0 OBJ File: 'Conveyor Belt.blend'
# www.blender.org
mtllib conveyor_belt_moving.mtl
o belt_back_right_inner_Cylinder.007
v 0.500000 0.437500 0.375000
v 0.437500 0.437500 0.375000
v 0.500000 0.427985 0.422835
v 0.437500 0.427985 0.422836
v 0.500000 0.400888 0.463388
v 0.437500 0.400888 0.463388
v 0.500000 0.360335 0.490485
v 0.437500 0.360335 0.490485
v 0.500000 0.312500 0.500000
v 0.437500 0.312500 0.500000
v 0.500000 0.264665 0.490485
v 0.437500 0.264665 0.490485
v 0.500000 0.224112 0.463388
v 0.437500 0.224112 0.463388
v 0.500000 0.197015 0.422835
v 0.437500 0.197015 0.422836
v 0.500000 0.187500 0.375000
v 0.437500 0.187500 0.375000
v 0.437500 0.437500 0.000000
v 0.500000 0.437500 -0.000000
v 0.500000 0.187500 -0.000000
v 0.437500 0.187500 0.000000
vt 1.000000 1.625000
vt 1.000000 1.562500
vt 0.937500 1.562500
vt 0.937500 1.625000
vt 1.000000 1.500000
vt 0.937500 1.500000
vt 1.000000 1.437500
vt 0.937500 1.437500
vt 1.000000 1.375000
vt 0.937500 1.375000
vt 1.000000 1.312500
vt 0.937500 1.312500
vt 1.000000 1.250000
vt 0.937500 1.250000
vt 1.000000 1.187500
vt 0.937500 1.187500
vt 1.000000 1.125000
vt 0.937500 1.125000
vt 0.937500 0.500000
vt 1.000000 0.500000
vt 1.000000 0.125000
vt 0.937500 0.125000
vt 0.937500 0.750000
vt 1.000000 0.750000
vt 1.000000 1.125000
vt 0.937500 1.125000
vn -0.0000 -0.9808 -0.1951
vn -0.0000 -0.8315 -0.5556
vn -0.0000 -0.5556 -0.8315
vn -0.0000 -0.1951 -0.9808
vn -0.0000 0.1951 -0.9808
vn -0.0000 0.5556 -0.8315
vn -0.0000 0.8315 -0.5556
vn -0.0000 0.9808 -0.1951
vn 0.0000 -1.0000 -0.0000
vn -0.0000 1.0000 0.0000
usemtl conveyor_inner
s off
f 1/1/1 3/2/1 4/3/1 2/4/1
f 3/2/2 5/5/2 6/6/2 4/3/2
f 5/5/3 7/7/3 8/8/3 6/6/3
f 7/7/4 9/9/4 10/10/4 8/8/4
f 9/9/5 11/11/5 12/12/5 10/10/5
f 11/11/6 13/13/6 14/14/6 12/12/6
f 13/13/7 15/15/7 16/16/7 14/14/7
f 15/15/8 17/17/8 18/18/8 16/16/8
f 19/19/9 20/20/9 1/21/9 2/22/9
f 21/23/10 22/24/10 18/25/10 17/26/10
o belt_back_right_outer_Cylinder.004
v 0.500000 0.437500 0.375000
v 0.437500 0.437500 0.375000
v 0.500000 0.427985 0.422835
v 0.437500 0.427985 0.422836
v 0.500000 0.400888 0.463388
v 0.437500 0.400888 0.463388
v 0.500000 0.360335 0.490485
v 0.437500 0.360335 0.490485
v 0.500000 0.312500 0.500000
v 0.437500 0.312500 0.500000
v 0.500000 0.264665 0.490485
v 0.437500 0.264665 0.490485
v 0.500000 0.224112 0.463388
v 0.437500 0.224112 0.463388
v 0.500000 0.197015 0.422835
v 0.437500 0.197015 0.422836
v 0.500000 0.187500 0.375000
v 0.437500 0.187500 0.375000
v 0.437500 0.437500 0.000000
v 0.500000 0.437500 0.000000
v 0.500000 0.187500 0.000000
v 0.437500 0.187500 0.000000
vt 1.000000 1.625000
vt 0.937500 1.625000
vt 0.937500 1.562500
vt 1.000000 1.562500
vt 0.937500 1.500000
vt 1.000000 1.500000
vt 0.937500 1.437500
vt 1.000000 1.437500
vt 0.937500 1.375000
vt 1.000000 1.375000
vt 0.937500 1.312500
vt 1.000000 1.312500
vt 0.937500 1.250000
vt 1.000000 1.250000
vt 0.937500 1.187500
vt 1.000000 1.187500
vt 0.937500 1.125000
vt 1.000000 1.125000
vt 0.937500 0.500000
vt 0.937500 0.125000
vt 1.000000 0.125000
vt 1.000000 0.500000
vt 0.937500 0.750000
vt 0.937500 1.125000
vt 1.000000 1.125000
vt 1.000000 0.750000
vn -0.0000 0.9808 0.1951
vn 0.0000 0.8315 0.5556
vn 0.0000 0.5556 0.8315
vn 0.0000 0.1951 0.9808
vn 0.0000 -0.1951 0.9808
vn 0.0000 -0.5556 0.8315
vn 0.0000 -0.8315 0.5556
vn 0.0000 -0.9808 0.1951
vn -0.0000 1.0000 0.0000
vn 0.0000 -1.0000 -0.0000
usemtl conveyor
s off
f 23/27/11 24/28/11 26/29/11 25/30/11
f 25/30/12 26/29/12 28/31/12 27/32/12
f 27/32/13 28/31/13 30/33/13 29/34/13
f 29/34/14 30/33/14 32/35/14 31/36/14
f 31/36/15 32/35/15 34/37/15 33/38/15
f 33/38/16 34/37/16 36/39/16 35/40/16
f 35/40/17 36/39/17 38/41/17 37/42/17
f 37/42/18 38/41/18 40/43/18 39/44/18
f 41/45/19 24/46/19 23/47/19 42/48/19
f 43/49/20 39/50/20 40/51/20 44/52/20
