# Blender v2.91.0 OBJ File: 'Conveyor Belt.blend'
# www.blender.org
mtllib conveyor_belt.mtl
o leg_middle_left_Cube.008
v -0.500000 -0.500000 0.031250
v -0.500000 -0.500000 -0.031250
v -0.437500 -0.500000 0.031250
v -0.437500 -0.500000 -0.031250
v -0.500000 0.187500 0.031250
v -0.500000 0.187500 -0.031250
v -0.437500 0.187500 -0.031250
v -0.437500 0.187500 0.031250
v -0.500000 0.437500 0.031250
v -0.500000 0.437500 -0.031250
v -0.437500 0.437500 -0.031250
v -0.437500 0.437500 0.031250
v -0.437500 0.187500 0.156250
v -0.500000 0.187500 0.156250
v -0.437500 0.437500 0.156250
v -0.500000 0.437500 0.156250
v -0.500000 0.187500 -0.156250
v -0.437500 0.187500 -0.156250
v -0.500000 0.437500 -0.156250
v -0.437500 0.437500 -0.156250
v -0.437500 0.187500 0.156250
v -0.500000 0.187500 0.156250
v -0.437500 0.437500 0.156250
v -0.500000 0.437500 0.156250
v -0.437500 -0.468750 -0.031250
v -0.437500 -0.468750 0.031250
v -0.500000 -0.468750 0.031250
v -0.500000 -0.468750 -0.031250
v -0.500000 -0.500000 0.093750
v -0.437500 -0.500000 0.093750
v -0.437500 -0.468750 0.093750
v -0.500000 -0.468750 0.093750
v -0.437500 -0.500000 -0.093750
v -0.500000 -0.500000 -0.093750
v -0.437500 -0.468750 -0.093750
v -0.500000 -0.468750 -0.093750
vt 0.187500 0.031250
vt 0.250000 0.031250
vt 0.250000 0.687500
vt 0.187500 0.687500
vt 0.250000 0.031250
vt 0.187500 0.031250
vt 0.187500 0.687500
vt 0.250000 0.687500
vt 0.187500 0.062500
vt 0.250000 0.062500
vt 0.250000 0.000000
vt 0.187500 0.000000
vt 0.187500 0.031250
vt 0.187500 0.687500
vt 0.745833 0.625000
vt 0.745833 0.687500
vt 0.879167 0.687500
vt 0.879167 0.625000
vt 0.250000 0.031250
vt 0.250000 0.687500
vt 0.687500 1.000000
vt 0.687500 0.937500
vt 0.750000 0.937500
vt 0.750000 1.000000
vt 0.562500 1.000000
vt 0.562500 0.937500
vt 0.687500 0.687500
vt 0.750000 0.687500
vt 0.750000 0.937500
vt 0.687500 0.937500
vt 0.687500 0.687500
vt 0.750000 0.687500
vt 0.562500 0.937500
vt 0.562500 0.687500
vt 0.875000 0.687500
vt 0.875000 0.937500
vt 0.875000 1.000000
vt 0.687500 0.687500
vt 0.687500 0.625000
vt 0.562500 0.625000
vt 0.562500 0.687500
vt 0.937500 0.687500
vt 0.875000 0.687500
vt 0.875000 0.937500
vt 0.937500 0.937500
vt 0.937500 0.687500
vt 0.937500 0.937500
vt 0.562500 0.687500
vt 0.875000 0.687500
vt 0.875000 0.937500
vt 0.312500 0.000000
vt 0.312500 0.031250
vt 0.250000 0.031250
vt 0.250000 0.000000
vt 0.250000 0.031250
vt 0.250000 -0.000000
vt 0.312500 -0.000000
vt 0.312500 0.031250
vt 0.250000 0.000000
vt 0.187500 -0.000000
vt 0.187500 0.031250
vt 0.312500 0.000000
vt 0.375000 0.000000
vt 0.375000 0.031250
vt 0.312500 0.031250
vt 0.125000 0.031250
vt 0.125000 -0.000000
vt 0.250000 0.031250
vt 0.187500 0.031250
vt 0.250000 0.062500
vt 0.312500 0.062500
vt 0.312500 0.125000
vt 0.250000 0.125000
vt 0.125000 0.000000
vt 0.062500 0.000000
vt 0.062500 0.031250
vt 0.125000 0.031250
vt 0.125000 0.031250
vt 0.125000 0.000000
vt 0.187500 0.000000
vt 0.187500 0.031250
vt 0.125000 0.125000
vt 0.125000 0.062500
vt 0.187500 0.062500
vt 0.187500 0.125000
vt 0.187500 0.000000
vt 0.187500 0.031250
vt 0.125000 0.031250
vt 0.125000 0.000000
vn 1.0000 0.0000 0.0000
vn -1.0000 0.0000 0.0000
vn 0.0000 -1.0000 0.0000
vn 0.0000 0.0000 -1.0000
vn 0.0000 0.0000 1.0000
vn 0.0000 1.0000 0.0000
usemtl steel
s off
f 26/1/1 25/2/1 7/3/1 8/4/1
f 28/5/2 27/6/2 5/7/2 6/8/2
f 2/9/3 4/10/3 3/11/3 1/12/3
f 25/2/4 28/13/4 6/14/4 7/3/4
f 5/15/3 8/16/3 13/17/3 14/18/3
f 27/6/5 26/19/5 8/20/5 5/7/5
f 11/21/6 10/22/6 9/23/6 12/24/6
f 10/22/6 11/21/6 20/25/6 19/26/6
f 8/27/1 7/28/1 11/29/1 12/30/1
f 6/31/2 5/32/2 9/23/2 10/22/2
f 8/27/1 12/30/1 15/33/1 13/34/1
f 9/23/2 5/32/2 14/35/2 16/36/2
f 12/24/6 9/23/6 16/36/6 15/37/6
f 7/38/3 6/39/3 17/40/3 18/41/3
f 18/42/4 17/43/4 19/44/4 20/45/4
f 14/35/5 13/46/5 15/47/5 16/36/5
f 10/22/2 19/26/2 17/48/2 6/31/2
f 11/29/1 7/28/1 18/49/1 20/50/1
f 27/51/2 1/52/2 29/53/2 32/54/2
f 25/55/1 4/56/1 33/57/1 35/58/1
f 2/59/2 1/12/2 27/6/2 28/5/2
f 3/60/1 4/56/1 25/55/1 26/61/1
f 29/62/5 30/63/5 31/64/5 32/65/5
f 3/60/1 26/61/1 31/66/1 30/67/1
f 1/12/3 3/11/3 30/68/3 29/69/3
f 26/70/6 27/71/6 32/72/6 31/73/6
f 33/74/4 34/75/4 36/76/4 35/77/4
f 4/78/3 2/79/3 34/80/3 33/81/3
f 28/82/6 25/83/6 35/84/6 36/85/6
f 2/86/2 28/87/2 36/88/2 34/89/2
l 24 16
l 14 22
l 21 13
l 15 23
