# Blender v2.91.0 OBJ File: 'Conveyor Belt.blend'
# www.blender.org
mtllib conveyor_belt.mtl
o roller_Cylinder.006
v -0.500000 0.187500 -0.375000
v 0.500000 0.187500 -0.375000
v -0.500000 0.197015 -0.327165
v 0.500000 0.197015 -0.327165
v -0.500000 0.224112 -0.286612
v 0.500000 0.224112 -0.286612
v -0.500000 0.264665 -0.259515
v 0.500000 0.264665 -0.259515
v -0.500000 0.312500 -0.250000
v 0.500000 0.312500 -0.250000
v -0.500000 0.360335 -0.259515
v 0.500000 0.360335 -0.259515
v -0.500000 0.400888 -0.286612
v 0.500000 0.400888 -0.286612
v -0.500000 0.427985 -0.327165
v 0.500000 0.427985 -0.327165
v -0.500000 0.437500 -0.375000
v 0.500000 0.437500 -0.375000
vt 1.000000 1.008850
vt 0.000000 1.008850
vt 0.000000 0.959763
vt 1.000000 0.959762
vt 0.000000 0.910675
vt 1.000000 0.910675
vt 0.000000 0.861588
vt 1.000000 0.861587
vt 0.000000 0.812500
vt 1.000000 0.812500
vt 0.000000 0.763413
vt 1.000000 0.763412
vt 0.000000 0.714325
vt 1.000000 0.714325
vt 0.000000 0.665238
vt 1.000000 0.665237
vt 0.000000 0.616150
vt 1.000000 0.616150
vn 0.0000 -0.9808 0.1951
vn -0.0000 -0.8315 0.5556
vn -0.0000 -0.5556 0.8315
vn -0.0000 -0.1951 0.9808
vn -0.0000 0.1951 0.9808
vn -0.0000 0.5556 0.8315
vn -0.0000 0.8315 0.5556
vn -0.0000 0.9808 0.1951
usemtl steel
s off
f 1/1/1 2/2/1 4/3/1 3/4/1
f 3/4/2 4/3/2 6/5/2 5/6/2
f 5/6/3 6/5/3 8/7/3 7/8/3
f 7/8/4 8/7/4 10/9/4 9/10/4
f 9/10/5 10/9/5 12/11/5 11/12/5
f 11/12/6 12/11/6 14/13/6 13/14/6
f 13/14/7 14/13/7 16/15/7 15/16/7
f 15/16/8 16/15/8 18/17/8 17/18/8
