# Blender v2.91.0 OBJ File: 'Conveyor Belt.blend'
# www.blender.org
mtllib conveyor_belt.mtl
o supprts_front_middle_Cube.015
v -0.375000 0.281250 0.000000
v -0.375000 0.343750 0.000000
v -0.375000 0.281250 -0.062500
v -0.375000 0.343750 -0.062500
v 0.375000 0.281250 0.000000
v 0.375000 0.343750 0.000000
v 0.375000 0.281250 -0.062500
v 0.375000 0.343750 -0.062500
v -0.437500 0.281250 0.000000
v -0.437500 0.343750 0.000000
v -0.437500 0.281250 -0.500000
v -0.437500 0.343750 -0.500000
v -0.375000 0.281250 0.000000
v -0.375000 0.343750 0.000000
v -0.375000 0.281250 -0.500000
v -0.375000 0.343750 -0.500000
v 0.375000 0.281250 0.000000
v 0.375000 0.343750 0.000000
v 0.375000 0.281250 -0.500000
v 0.375000 0.343750 -0.500000
v 0.437500 0.281250 0.000000
v 0.437500 0.343750 0.000000
v 0.437500 0.281250 -0.500000
v 0.437500 0.343750 -0.500000
vt 0.875000 0.500000
vt 0.875000 0.562500
vt 0.125000 0.562500
vt 0.125000 0.500000
vt 0.140706 0.842791
vt 0.158934 0.164916
vt 0.226653 0.000000
vt 0.226653 0.967473
vt 0.875000 0.562500
vt 0.125000 0.562500
vt 0.125000 0.500000
vt 0.875000 0.500000
vt 0.500000 0.812500
vt 0.500000 0.875000
vt 0.000000 0.875000
vt 0.000000 0.812500
vt 0.000000 0.937500
vt 0.000000 1.000000
vt 0.062500 1.000000
vt 0.062500 0.937500
vt 1.000000 0.812500
vt 1.000000 0.875000
vt 0.500000 0.875000
vt 0.500000 0.812500
vt 0.875000 1.000000
vt 0.937500 1.000000
vt 0.937500 0.500000
vt 0.875000 0.500000
vt 0.125000 1.000000
vt 0.062500 1.000000
vt 0.062500 0.500000
vt 0.125000 0.500000
vt 0.500000 0.812500
vt 0.500000 0.875000
vt 0.000000 0.875000
vt 0.000000 0.812500
vt 0.000000 0.937500
vt 0.000000 1.000000
vt 0.062500 1.000000
vt 0.062500 0.937500
vt 1.000000 0.812500
vt 1.000000 0.875000
vt 0.500000 0.875000
vt 0.500000 0.812500
vt 0.875000 1.000000
vt 0.937500 1.000000
vt 0.937500 0.500000
vt 0.875000 0.500000
vt 0.125000 1.000000
vt 0.062500 1.000000
vt 0.062500 0.500000
vt 0.125000 0.500000
vn 0.0000 0.0000 -1.0000
vn 0.0000 -1.0000 0.0000
vn 0.0000 1.0000 0.0000
vn -1.0000 0.0000 0.0000
vn 1.0000 0.0000 0.0000
usemtl supports
s off
f 3/1/1 4/2/1 8/3/1 7/4/1
f 3/5/2 7/6/2 5/7/2 1/8/2
f 8/9/3 4/10/3 2/11/3 6/12/3
f 9/13/4 10/14/4 12/15/4 11/16/4
f 11/17/1 12/18/1 16/19/1 15/20/1
f 15/21/5 16/22/5 14/23/5 13/24/5
f 11/25/2 15/26/2 13/27/2 9/28/2
f 16/29/3 12/30/3 10/31/3 14/32/3
f 17/33/4 18/34/4 20/35/4 19/36/4
f 19/37/1 20/38/1 24/39/1 23/40/1
f 23/41/5 24/42/5 22/43/5 21/44/5
f 19/45/2 23/46/2 21/47/2 17/48/2
f 24/49/3 20/50/3 18/51/3 22/52/3
